<!-- Cyberpunk Girl SVG Placeholder -->
<svg width="800" height="500" viewBox="0 0 800 500" xmlns="http://www.w3.org/2000/svg">
  <defs>
    <!-- Gradients -->
    <linearGradient id="bgGrad" x1="0%" y1="0%" x2="100%" y2="100%">
      <stop offset="0%" style="stop-color:#0a0518;stop-opacity:1" />
      <stop offset="30%" style="stop-color:#1a0d2e;stop-opacity:1" />
      <stop offset="70%" style="stop-color:#0d0717;stop-opacity:1" />
      <stop offset="100%" style="stop-color:#2d1b69;stop-opacity:1" />
    </linearGradient>
    
    <linearGradient id="neonPink" x1="0%" y1="0%" x2="100%" y2="100%">
      <stop offset="0%" style="stop-color:#ff0080;stop-opacity:1" />
      <stop offset="50%" style="stop-color:#ff00ff;stop-opacity:1" />
      <stop offset="100%" style="stop-color:#c000ff;stop-opacity:1" />
    </linearGradient>
    
    <linearGradient id="neonBlue" x1="0%" y1="0%" x2="100%" y2="100%">
      <stop offset="0%" style="stop-color:#0080ff;stop-opacity:1" />
      <stop offset="50%" style="stop-color:#00ffff;stop-opacity:1" />
      <stop offset="100%" style="stop-color:#0040ff;stop-opacity:1" />
    </linearGradient>
    
    <!-- Filters for glow effects -->
    <filter id="glow" x="-50%" y="-50%" width="200%" height="200%">
      <feGaussianBlur stdDeviation="3" result="coloredBlur"/>
      <feMerge> 
        <feMergeNode in="coloredBlur"/>
        <feMergeNode in="SourceGraphic"/>
      </feMerge>
    </filter>
    
    <!-- Pattern for grid -->
    <pattern id="grid" width="50" height="50" patternUnits="userSpaceOnUse">
      <path d="M 50 0 L 0 0 0 50" fill="none" stroke="#00ffff" stroke-width="0.5" opacity="0.2"/>
    </pattern>
  </defs>
  
  <!-- Background -->
  <rect width="800" height="500" fill="url(#bgGrad)"/>
  
  <!-- Grid overlay -->
  <rect width="800" height="500" fill="url(#grid)" opacity="0.3"/>
  
  <!-- City skyline -->
  <rect x="50" y="300" width="40" height="200" fill="#1a1a2e" opacity="0.8"/>
  <rect x="100" y="250" width="60" height="250" fill="#16213e" opacity="0.8"/>
  <rect x="170" y="280" width="45" height="220" fill="#1a1a2e" opacity="0.8"/>
  <rect x="230" y="200" width="70" height="300" fill="#16213e" opacity="0.8"/>
  <rect x="320" y="260" width="55" height="240" fill="#1a1a2e" opacity="0.8"/>
  <rect x="390" y="180" width="65" height="320" fill="#16213e" opacity="0.8"/>
  <rect x="470" y="240" width="50" height="260" fill="#1a1a2e" opacity="0.8"/>
  <rect x="540" y="160" width="75" height="340" fill="#16213e" opacity="0.8"/>
  <rect x="630" y="220" width="55" height="280" fill="#1a1a2e" opacity="0.8"/>
  <rect x="700" y="290" width="45" height="210" fill="#16213e" opacity="0.8"/>
  
  <!-- Neon building lights -->
  <rect x="55" y="320" width="30" height="3" fill="url(#neonBlue)" filter="url(#glow)"/>
  <rect x="105" y="270" width="50" height="3" fill="url(#neonPink)" filter="url(#glow)"/>
  <rect x="175" y="300" width="35" height="3" fill="url(#neonBlue)" filter="url(#glow)"/>
  <rect x="235" y="230" width="60" height="3" fill="url(#neonPink)" filter="url(#glow)"/>
  <rect x="325" y="280" width="45" height="3" fill="url(#neonBlue)" filter="url(#glow)"/>
  <rect x="395" y="200" width="55" height="3" fill="url(#neonPink)" filter="url(#glow)"/>
  <rect x="475" y="260" width="40" height="3" fill="url(#neonBlue)" filter="url(#glow)"/>
  <rect x="545" y="180" width="65" height="3" fill="url(#neonPink)" filter="url(#glow)"/>
  
  <!-- Anime-style girl silhouette (artistic interpretation) -->
  <g transform="translate(150, 150)">
    <!-- Hair -->
    <path d="M 0 50 Q -30 20 -20 0 Q 0 -10 20 0 Q 50 20 20 50 Q 30 80 0 70 Q -30 80 0 50" 
          fill="url(#neonPink)" opacity="0.8" filter="url(#glow)"/>
    
    <!-- Face -->
    <ellipse cx="0" cy="40" rx="25" ry="30" fill="url(#neonPink)" opacity="0.6"/>
    
    <!-- Body silhouette -->
    <ellipse cx="0" cy="120" rx="35" ry="80" fill="url(#neonPink)" opacity="0.5"/>
    
    <!-- Glowing outline effect -->
    <path d="M -25 20 Q -35 10 -25 0 Q 0 -5 25 0 Q 35 10 25 20 Q 30 50 25 80 Q 35 120 25 150 Q 0 160 -25 150 Q -35 120 -25 80 Q -30 50 -25 20" 
          fill="none" stroke="url(#neonPink)" stroke-width="2" opacity="0.8" filter="url(#glow)"/>
  </g>
  
  <!-- Standing figure in distance -->
  <g transform="translate(600, 350)">
    <ellipse cx="0" cy="40" rx="15" ry="40" fill="#000" opacity="0.7"/>
    <circle cx="0" cy="15" r="8" fill="#000" opacity="0.7"/>
  </g>
  
  <!-- Floating holographic elements -->
  <circle cx="300" cy="100" r="20" fill="none" stroke="url(#neonBlue)" stroke-width="2" opacity="0.6" filter="url(#glow)">
    <animate attributeName="r" values="20;25;20" dur="3s" repeatCount="indefinite"/>
  </circle>
  
  <circle cx="500" cy="120" r="15" fill="none" stroke="url(#neonPink)" stroke-width="2" opacity="0.6" filter="url(#glow)">
    <animate attributeName="r" values="15;20;15" dur="2s" repeatCount="indefinite"/>
  </circle>
  
  <!-- Particle effects -->
  <circle cx="200" cy="80" r="2" fill="url(#neonBlue)" opacity="0.8">
    <animate attributeName="cy" values="80;60;80" dur="4s" repeatCount="indefinite"/>
  </circle>
  <circle cx="350" cy="90" r="1.5" fill="url(#neonPink)" opacity="0.8">
    <animate attributeName="cy" values="90;70;90" dur="3s" repeatCount="indefinite"/>
  </circle>
  <circle cx="450" cy="85" r="2" fill="url(#neonBlue)" opacity="0.8">
    <animate attributeName="cy" values="85;65;85" dur="3.5s" repeatCount="indefinite"/>
  </circle>
  
  <!-- Scan lines -->
  <rect width="800" height="2" y="0" fill="url(#neonBlue)" opacity="0.5">
    <animate attributeName="y" values="-10;510;-10" dur="4s" repeatCount="indefinite"/>
  </rect>
  
  <!-- Text elements -->
  <text x="400" y="450" text-anchor="middle" fill="url(#neonPink)" font-family="Arial, sans-serif" 
        font-size="28" font-weight="bold" filter="url(#glow)">NEURAL AGE</text>
  
  <text x="400" y="480" text-anchor="middle" fill="url(#neonBlue)" font-family="Arial, sans-serif" 
        font-size="16" opacity="0.8">WHERE HUMANITY MEETS AI</text>
</svg>
